<?xml version="1.0" standalone="no"?>
<!DOCTYPE svg PUBLIC "-//W3C//DTD SVG 20010904//EN"
 "http://www.w3.org/TR/2001/REC-SVG-20010904/DTD/svg10.dtd">
<svg version="1.0" xmlns="http://www.w3.org/2000/svg"
 width="234.000000pt" height="234.000000pt" viewBox="0 0 234.000000 234.000000"
 preserveAspectRatio="xMidYMid meet">

<g transform="translate(0.000000,234.000000) scale(0.100000,-0.100000)"
fill="#000000" stroke="none">
<path d="M0 1170 l0 -1170 1170 0 1170 0 0 1170 0 1170 -1170 0 -1170 0 0
-1170z m930 169 l0 -91 31 26 c60 50 162 29 197 -42 46 -90 34 -203 -28 -264
-33 -33 -44 -38 -85 -38 -47 0 -104 24 -106 45 0 5 -4 0 -9 -12 -6 -13 -18
-23 -30 -23 -20 0 -20 5 -20 245 l0 245 25 0 c25 0 25 -1 25 -91z m-152 54
c-3 -16 -18 -18 -109 -21 l-106 -3 -6 -77 c-2 -42 -3 -78 -2 -80 2 -2 12 1 23
7 32 17 113 13 151 -7 93 -50 94 -198 1 -260 -30 -20 -45 -23 -100 -20 -68 4
-130 34 -130 63 0 23 30 26 53 5 28 -27 58 -34 110 -27 59 8 87 43 87 108 0
42 -5 55 -29 80 -35 34 -91 39 -147 13 -52 -25 -64 -14 -64 54 0 33 3 87 6
121 l7 61 129 0 c118 0 129 -2 126 -17z m500 -15 c5 -18 29 -108 53 -200 24
-93 46 -168 49 -168 3 0 30 90 60 200 52 195 54 200 80 200 25 0 27 -5 80
-200 29 -110 56 -200 59 -200 3 0 28 85 55 189 26 103 52 194 56 201 4 6 16
10 27 8 19 -3 18 -12 -34 -198 -29 -107 -58 -212 -64 -232 -8 -33 -14 -38 -38
-38 -29 0 -29 1 -80 183 -28 100 -51 188 -51 195 0 6 -3 12 -8 12 -4 0 -32
-88 -61 -195 -54 -194 -54 -195 -82 -195 -32 0 -22 -27 -104 270 -25 91 -48
173 -51 183 -4 13 1 17 20 17 20 0 27 -7 34 -32z m652 -203 l0 -235 -25 0 -25
0 0 235 0 235 25 0 25 0 0 -235z"/>
<path d="M983 1248 c-33 -16 -53 -68 -53 -138 0 -98 31 -140 105 -140 74 0
118 84 100 191 -14 80 -84 120 -152 87z"/>
</g>
</svg>
